<?xml version="1.0" encoding="UTF-8"?>
<svg width="262px" height="209px" viewBox="0 0 262 209" version="1.1" xmlns="http://www.w3.org/2000/svg" xmlns:xlink="http://www.w3.org/1999/xlink">
    <title>Kuma</title>
    <g id="Page-1" stroke="none" stroke-width="1" fill="none" fill-rule="evenodd">
        <g id="Desktop-Copy" transform="translate(-60.000000, -785.000000)">
            <g id="Kuma" transform="translate(60.000000, 785.000000)">
                <path d="M131,209 L129.894727,208.997234 C93.3524909,208.814675 50.0542484,199.595425 5.68434189e-14,181.339484 C13.5333049,111.049705 22.42099,69.6032104 26.6630554,57 C28.3853885,51.8829345 31.1473512,46.1657596 35.1661834,40.5494322 C29.052923,36.6412894 25,29.7939502 25,22 C25,9.8497355 34.8497355,-2.84217094e-14 47,-2.84217094e-14 C57.071949,-2.84217094e-14 65.5630748,6.7683084 68.1719791,16.0035588 C76.9248424,12.8830693 87.2246672,10.999437 99.2721558,10.999437 L99.2721558,10.999437 L162.727844,10.999437 C174.775333,10.999437 185.075158,12.8830693 193.828021,16.0035588 C196.436925,6.7683084 204.928051,-1.42108547e-14 215,-1.42108547e-14 C227.150264,-1.42108547e-14 237,9.8497355 237,22 C237,29.7939502 232.947077,36.6412894 226.833817,40.5494322 C230.852649,46.1657596 233.614611,51.8829345 235.336945,57 C239.57901,69.6032104 248.466695,111.049705 262,181.339484 C211.945752,199.595425 168.647509,208.814675 132.105273,208.997234 L131,209 L131,209 Z" id="Combined-Shape" fill="#B37F3E"></path>
                <path d="M90.1409203,158.578634 C85.2764651,146.425009 96.8273258,109.739562 108.525097,92.9742127 C112.778088,86.8787886 116.457262,60.8873843 119.562619,15 L142.437381,15 C145.542738,60.8873843 149.221912,86.8787886 153.474903,92.9742127 C165.172674,109.739562 176.723535,146.425009 171.85908,158.578634 C164.348388,177.343764 150.728695,186.477806 131,185.980761 L131,185.980761 C111.271305,186.477806 97.6516117,177.343764 90.1409203,158.578634 Z" id="Combined-Shape" fill="#EABE8B"></path>
                <path d="M155.880574,162.358359 C155.92425,162.486858 155.95265,162.620051 155.965188,162.755189 L156.267253,166.011033 C156.398055,167.420888 155.585826,168.740376 154.286673,169.266246 L154.114495,169.33028 L153.500595,169.536851 L152.59139,169.838826 L151.993012,170.034887 L151.107079,170.321094 L150.524209,170.506642 L149.947538,170.687983 L149.094148,170.952108 L148.532964,171.122932 L147.97797,171.289547 L147.157081,171.53158 L146.617552,171.687674 L146.084206,171.839558 L145.55704,171.987231 L145.036051,172.130694 L144.521237,172.269946 L144.012596,172.404986 C143.928337,172.427142 143.844335,172.449122 143.76059,172.470926 L143.261204,172.599648 L142.767984,172.724156 L142.280929,172.844451 L141.800035,172.960532 L141.325302,173.072399 L140.856726,173.18005 L140.394304,173.283486 C140.317747,173.300374 140.241446,173.317086 140.165401,173.333623 L139.712207,173.430735 L139.265163,173.52363 L138.824265,173.612308 L138.389511,173.696768 L137.960899,173.77701 L137.748896,173.815549 L137.748896,173.815549 L137.329492,173.889462 L136.916225,173.959156 C136.847858,173.97042 136.779747,173.981508 136.711891,173.992421 L136.307823,174.055785 L135.909885,174.114928 L135.518074,174.169849 L135.132388,174.22055 L134.752826,174.267027 C134.690076,174.274422 134.62758,174.28164 134.56534,174.288683 L134.194957,174.328826 C134.133737,174.335165 134.072771,174.341328 134.01206,174.347314 L133.650852,174.381122 C133.59116,174.386405 133.531723,174.391512 133.47254,174.396442 L133.120501,174.423914 C133.062337,174.42814 133.004428,174.432191 132.946773,174.436065 L132.603898,174.457199 L132.267129,174.474107 C132.21151,174.476573 132.156144,174.478863 132.101034,174.480976 L131.77342,174.491545 L131.451906,174.497886 L131.13649,174.5 L130.820941,174.497878 L130.500693,174.491512 C130.446927,174.490098 130.392965,174.488507 130.338807,174.486739 L130.011508,174.474009 C129.956566,174.471534 129.901429,174.468882 129.846095,174.466053 L129.51174,174.446961 L129.17268,174.423628 L128.828912,174.396055 L128.480434,174.364242 L128.127245,174.32819 L127.769342,174.2879 C127.709299,174.280832 127.649059,174.273587 127.588623,174.266166 L127.223647,174.21952 L126.853953,174.168638 L126.47954,174.11352 L126.100406,174.054166 L125.716548,173.990578 L125.327965,173.922757 L124.934655,173.850702 C124.86871,173.83834 124.802567,173.825802 124.736227,173.813087 L124.335824,173.734684 L123.930689,173.652049 C123.862772,173.637924 123.794658,173.623622 123.726346,173.609145 L123.314111,173.520164 L123.106217,173.474087 L123.106217,173.474087 L122.686877,173.378762 L122.262798,173.279208 L121.833979,173.175426 L121.400417,173.067417 C121.327761,173.049063 121.254908,173.030533 121.181857,173.011827 L120.741178,172.897477 L120.295752,172.778902 L120.071259,172.71803 L120.071259,172.71803 L119.61871,172.593117 L119.161409,172.463981 L118.699354,172.330621 L118.232545,172.193038 L117.760979,172.051233 L117.284654,171.905207 L116.803568,171.75496 L116.07301,171.521677 L115.580015,171.360881 L115.082253,171.195866 L114.326668,170.940437 L113.816981,170.76488 L113.0435,170.493639 L112.521876,170.307543 L111.730481,170.020497 L110.92833,169.723971 L110.387584,169.521022 L109.567492,169.208701 C108.347868,168.740255 107.594702,167.511289 107.730927,166.211917 L108.069013,162.987114 C108.179473,161.933502 109.123139,161.168927 110.176751,161.279387 C110.288047,161.291055 110.398002,161.312429 110.505369,161.34321 L110.664325,161.396399 L111.194876,161.59789 L111.981712,161.892388 L112.500273,162.083561 L113.014034,162.270607 L113.522995,162.453527 L114.027152,162.632322 L114.526504,162.806992 L115.02105,162.977539 L115.753853,163.225629 L116.47583,163.464443 L116.951132,163.618501 L117.421617,163.768439 L117.887285,163.914257 L118.576751,164.12526 L119.030367,164.260781 C119.105568,164.283025 119.180568,164.305097 119.255367,164.326998 L119.701746,164.456343 L120.1433,164.581572 L120.580024,164.702685 L121.011919,164.819683 C121.083499,164.83884 121.154877,164.857826 121.226054,164.876639 L121.6507,164.987466 L122.070511,165.094179 L122.485485,165.19678 L122.691158,165.246538 L122.691158,165.246538 L123.098874,165.342971 L123.501749,165.435292 L123.70137,165.479911 L123.70137,165.479911 L124.09698,165.566068 L124.487744,165.648114 L124.87366,165.726052 C124.937575,165.7387 125.001289,165.751176 125.0648,165.763481 L125.443441,165.835257 L125.817231,165.902926 L126.186166,165.966489 L126.550246,166.025946 C126.610521,166.035514 126.670594,166.04491 126.730464,166.054136 L127.087257,166.107435 L127.43919,166.156631 L127.78626,166.201724 L128.128466,166.242714 L128.465807,166.279601 L128.79828,166.312388 C128.853286,166.317511 128.90809,166.322462 128.962691,166.327243 L129.287859,166.353879 L129.608155,166.376415 L129.766475,166.386146 L129.766475,166.386146 L130.07946,166.402534 C130.182975,166.407314 130.285678,166.41141 130.387568,166.414824 L130.690797,166.423017 L130.840582,166.425577 L130.840582,166.425577 L131.13649,166.427624 L131.433943,166.425568 C131.484044,166.424883 131.534408,166.424026 131.585034,166.422998 L131.891944,166.414774 L132.205155,166.402436 L132.524665,166.385984 L132.850473,166.365419 L133.182574,166.340739 L133.350985,166.326856 L133.350985,166.326856 L133.692524,166.296003 L134.040351,166.261034 L134.394464,166.221949 L134.754862,166.178747 L135.12154,166.131428 L135.494498,166.07999 C135.557181,166.071074 135.620125,166.061987 135.683331,166.052728 L136.065703,165.995113 L136.454347,165.933379 L136.849263,165.867525 L137.250447,165.797551 C137.317833,165.785546 137.38548,165.773368 137.453388,165.761019 L137.86397,165.684864 L138.280815,165.604588 L138.917818,165.476445 L139.350308,165.385864 L139.789052,165.291159 L140.234047,165.19233 L140.685292,165.089378 L141.142784,164.982301 L141.606521,164.871098 L142.313829,164.696559 L143.035174,164.512736 L143.523866,164.385028 L144.01879,164.253193 L144.519944,164.117229 L145.027326,163.977137 L145.540934,163.832916 L146.060765,163.684565 L146.586817,163.532084 L147.119088,163.375472 L147.657574,163.214729 L148.476954,162.965868 L149.310307,162.707709 L149.873634,162.530437 L150.443166,162.349031 L151.309091,162.069171 L152.188962,161.780007 L152.783287,161.582061 L153.686384,161.277388 C154.590795,160.969981 155.573167,161.453948 155.880574,162.358359 Z M112.625509,126.576928 C117.401799,121.627104 145.685344,121.991762 150.109759,126.576928 C153.05937,129.633704 146.811995,136.108062 131.367634,146 C115.688691,136.351168 109.441316,129.87681 112.625509,126.576928 Z" id="Combined-Shape" fill="#282828"></path>
                <circle id="Oval" fill="#2D2D2D" cx="87" cy="94.8945312" r="12"></circle>
                <circle id="Oval" fill="#2D2D2D" cx="176" cy="94.8945312" r="12"></circle>
            </g>
        </g>
    </g>
</svg>